<svg id="Layer_1" data-name="Layer 1" xmlns="http://www.w3.org/2000/svg" viewBox="0 0 100 100"><defs><style>.cls-1{fill:#fff;}</style></defs><title>Sprin Cloud</title><path class="cls-1" d="M75.21,44.23a90.82,90.82,0,0,0-3.91-15.1,21.62,21.62,0,0,1-2.57,4.57,24.08,24.08,0,0,0-34.05-.49,23.63,23.63,0,0,0-3.89,4.91,16,16,0,0,1,9.84,4.14,16.61,16.61,0,0,0-9.3-2.75,17,17,0,0,0,0,34.09h39.3a15,15,0,0,0,4.58-29.37ZM38.5,68.34a2,2,0,1,1-.29-2.89,2,2,0,0,1,.29,2.89Zm32.7-7.21c-6,7.92-18.65,5.26-26.79,5.63,0,0-1.44.08-2.89.32,0,0,.55-.23,1.25-.47,5.71-2,8.42-2.38,11.9-4.17,6.52-3.34,13-10.62,14.34-18.19-2.49,7.28-10,13.54-16.92,16.08a118.44,118.44,0,0,1-13.24,3.44l-.34-.19c-5.8-2.82-6-15.36,4.56-19.41,4.62-1.77,9-.8,14-2,5.32-1.26,11.48-5.26,14-10.46,2.81,8.33,6.18,21.35.14,29.41Z"/></svg>