<svg id="Layer_1" data-name="Layer 1" xmlns="http://www.w3.org/2000/svg" viewBox="0 0 100 100"><defs><style>.cls-1{fill:#fff;}</style></defs><title>Spring Boot</title><path class="cls-1" d="M83.79,46.27,70.13,22.62a8.28,8.28,0,0,0-6.47-3.75H36.34a8.3,8.3,0,0,0-6.47,3.74L16.21,46.26a8.28,8.28,0,0,0,0,7.48L29.87,77.39a8.27,8.27,0,0,0,6.47,3.74H63.66a8.31,8.31,0,0,0,6.47-3.74L83.79,53.74A8.26,8.26,0,0,0,83.79,46.27ZM47.05,32a2.82,2.82,0,1,1,5.63-.2v17a2.82,2.82,0,1,1-5.63.19.61.61,0,0,1,0-.19Zm2.81,35.91A19.1,19.1,0,0,1,38.47,33.46a2.51,2.51,0,1,1,3,4,14.09,14.09,0,1,0,16.77,0,2.51,2.51,0,0,1,3-4.06h0A19.1,19.1,0,0,1,49.86,67.87Z"/></svg>