<svg id="Layer_1" data-name="Layer 1" xmlns="http://www.w3.org/2000/svg" viewBox="0 0 100 100"><defs><style>.cls-1{fill:#fff;}</style></defs><title>Spring Cloud Data Flow</title><path class="cls-1" d="M51.44,28.67c9.75,0,18.76,6.83,21,15.89l.25,1,1,.29a13.07,13.07,0,0,1,9.5,12.57,12.74,12.74,0,0,1-3.8,9.13,13,13,0,0,1-9.22,3.75H32A14.91,14.91,0,0,1,30.7,41.55l1.08-.09.43-1c3.06-6.95,11-11.8,19.23-11.8m0-1.82c-9,0-17.58,5.39-20.88,12.89A16.73,16.73,0,0,0,32,73.15H70.16A14.71,14.71,0,0,0,85,58.46,14.91,14.91,0,0,0,74.17,44.13C71.69,33.9,61.72,26.85,51.44,26.85Z"/><path class="cls-1" d="M50.72,46.9a1.7,1.7,0,0,1,1.28.33c.37.33.65,1,.65,2.77s-.28,2.43-.66,2.77a1.7,1.7,0,0,1-1.27.33H49.28A1.72,1.72,0,0,1,48,52.77c-.37-.34-.66-1-.66-2.77s.28-2.44.66-2.77a1.67,1.67,0,0,1,1.27-.33ZM49.59,48c-.33,0-.43,0-.51.09s-.23.33-.23,1.86.14,1.77.23,1.85.18.1.51.1h.8c.34,0,.44,0,.52-.1s.23-.32.23-1.85-.14-1.77-.23-1.86-.18-.09-.52-.09Z"/><path class="cls-1" d="M50,52.78V48.41l-.87.3-.32-.93,1.46-.56h1v5.55Z"/><path class="cls-1" d="M50.54,47.67a1.26,1.26,0,0,1,1,.25c.28.24.5.73.5,2.08s-.23,1.83-.5,2.08a1.3,1.3,0,0,1-1,.25H49.45a1.27,1.27,0,0,1-1-.25c-.28-.25-.5-.73-.5-2.08s.22-1.84.5-2.08a1.23,1.23,0,0,1,1-.25Zm-.85.85c-.25,0-.33,0-.38.07s-.18.25-.18,1.4.11,1.33.18,1.39.13.08.38.08h.61c.25,0,.32,0,.38-.08s.18-.24.18-1.39-.11-1.33-.18-1.4-.13-.07-.38-.07Z"/><path class="cls-1" d="M50,52.1V48.79L49.3,49l-.24-.71,1.11-.41h.77v4.2Z"/><path class="cls-1" d="M50,51.93v-3l-.61.21-.22-.65,1-.38h.7v3.86Z"/><path class="cls-1" d="M50.35,48.48a.85.85,0,0,1,.62.16c.18.17.33.48.33,1.36s-.15,1.19-.33,1.36a.85.85,0,0,1-.62.16h-.7a.85.85,0,0,1-.62-.16c-.19-.17-.33-.48-.33-1.36s.14-1.19.33-1.36a.85.85,0,0,1,.62-.16Zm-.55.57c-.16,0-.21,0-.24.05s-.12.16-.12.91.07.86.12.9.08.05.24.05h.4c.16,0,.21,0,.25-.05s.11-.15.11-.9-.06-.87-.11-.91-.09-.05-.25-.05Z"/><path class="cls-1" d="M50.29,48.73a.7.7,0,0,1,.52.14c.14.13.28.39.28,1.13s-.12,1-.28,1.13a.75.75,0,0,1-.52.14h-.58a.74.74,0,0,1-.52-.14c-.15-.13-.28-.4-.28-1.13s.12-1,.28-1.13a.69.69,0,0,1,.52-.14Zm-.45.47c-.14,0-.18,0-.21,0s-.09.13-.09.75.05.72.09.75.07,0,.21,0h.33c.13,0,.17,0,.21,0s.09-.13.09-.75,0-.72-.09-.75-.07,0-.21,0Z"/><path class="cls-1" d="M50.21,49.09a.48.48,0,0,1,.37.09c.11.1.2.29.2.82s-.09.72-.2.82a.48.48,0,0,1-.37.09h-.42a.48.48,0,0,1-.37-.09c-.12-.1-.2-.29-.2-.82s.08-.72.2-.82a.48.48,0,0,1,.37-.09Zm-.33.34c-.1,0-.13,0-.15,0s-.07.1-.07.55,0,.52.07.55.05,0,.15,0h.23c.1,0,.13,0,.15,0s.08-.09.08-.55-.05-.52-.08-.55,0,0-.15,0Z"/><path class="cls-1" d="M67.27,30.79c-2,5.82-9.07,10.38-14.78,11.74-5.36,1.28-10.1.23-15.05,2.14-9.59,3.68-10.23,12.7-7,17.95.25.41,12.73-.58,18.86-3.21A31,31,0,0,0,63.58,46.86a.86.86,0,0,1,.9-.21.72.72,0,0,1,.54.73,26.4,26.4,0,0,1-12.41,17,40.35,40.35,0,0,1-10,4.45c-.4.11-.38.41.08.41,5.91,0,19.38.82,25-6.31C74.15,54.23,70.71,40.59,67.27,30.79Z"/></svg>