<svg id="Layer_1" data-name="Layer 1" xmlns="http://www.w3.org/2000/svg" viewBox="0 0 100 100"><defs><style>.cls-1{fill:#fff;}</style></defs><title>Spring Framework</title><path class="cls-1" d="M80.77,37.3a21.2,21.2,0,0,1,0,25.44,21.25,21.25,0,0,1-18,18,21.21,21.21,0,0,1-25.42,0,21.22,21.22,0,0,1-18-18,21.17,21.17,0,0,1,0-25.47,21.19,21.19,0,0,1,18-18,21.17,21.17,0,0,1,25.42,0A21.26,21.26,0,0,1,80.77,37.3ZM84.08,50a20.6,20.6,0,0,0-3-10.63,30.33,30.33,0,0,1-.19,6.53A37,37,0,0,1,80,50a31.25,31.25,0,0,1,1,10.63A20.42,20.42,0,0,0,84.07,50Zm-4.17-4.23a28,28,0,0,0,0-8.12,29.08,29.08,0,0,0-7.78-7.22,41,41,0,0,1,3.33,9,40.49,40.49,0,0,1,4,8.77C79.65,47.41,79.8,46.59,79.91,45.77Zm0,16.6a29,29,0,0,0-.4-10.55,40.22,40.22,0,0,1-4,8.73,40.63,40.63,0,0,1-3.33,9,29.09,29.09,0,0,0,7.77-7.19ZM79,50a38.24,38.24,0,0,0-3-7.63,45.51,45.51,0,0,1,0,15.27A38.09,38.09,0,0,0,79,50Zm.45-14.36A20.13,20.13,0,0,0,64.34,20.51,31.28,31.28,0,0,1,71.2,28.8a31.47,31.47,0,0,1,8.29,6.86Zm-5.4,38.43a20.4,20.4,0,0,0,5.38-9.73,31.62,31.62,0,0,1-8.27,6.83,31.28,31.28,0,0,1-6.86,8.29A20.39,20.39,0,0,0,74.09,74.09ZM73.79,37a37.26,37.26,0,0,0-3.26-7.5,37.55,37.55,0,0,0-7.47-3.25,46.13,46.13,0,0,1,5.8,4.92A44.9,44.9,0,0,1,73.78,37ZM70.53,70.53A37.72,37.72,0,0,0,73.78,63,45.63,45.63,0,0,1,63.05,73.79a38.26,38.26,0,0,0,7.48-3.26Zm-1-42.65a28.86,28.86,0,0,0-7.21-7.77,26.61,26.61,0,0,0-4.08-.32,31.37,31.37,0,0,0-6.48.71,39.91,39.91,0,0,1,8.77,4.06,40.27,40.27,0,0,1,9,3.34Zm-7.21,52a29,29,0,0,0,7.21-7.77,40.71,40.71,0,0,1-9,3.32,40,40,0,0,1-8.78,4.06,30.69,30.69,0,0,0,6.48.7,25.43,25.43,0,0,0,4.09-.31Zm1.17-22.11c4.91-5.73,3-15.63,1.34-22-2.13,3.78-6.93,6.46-11,7.14-3.79.65-7.93-.36-11.46.75C34.39,46.18,33.9,55.57,38.08,58l.21.17a85.6,85.6,0,0,0,11-1.87c5.27-1.57,11.22-5.88,13.43-11.2C61.37,50.65,56.14,55.77,51.1,58c-2.69,1.16-4.67,1.5-9.1,2.53a8.72,8.72,0,0,0-2.92,1.34c5-3.18,18.39,3,24.45-4.06ZM58.27,18.88c.8,0,1.58,0,2.35.1a20,20,0,0,0-21.24,0c.77-.07,1.55-.1,2.35-.1A32.56,32.56,0,0,1,50,20a32.56,32.56,0,0,1,8.27-1.11ZM60.62,81c-.77.07-1.55.1-2.35.11A32.57,32.57,0,0,1,50,80a32.57,32.57,0,0,1-8.27,1.12c-.8,0-1.58,0-2.35-.1a20.06,20.06,0,0,0,21.25,0Zm-3-57A36.88,36.88,0,0,0,50,21a36.88,36.88,0,0,0-7.66,3,45.29,45.29,0,0,1,15.32,0ZM50,79.06a36.88,36.88,0,0,0,7.66-3,45.29,45.29,0,0,1-15.32,0A37.33,37.33,0,0,0,50,79.06ZM48.21,20.51a31.37,31.37,0,0,0-6.48-.71,26.74,26.74,0,0,0-4.09.32,28.91,28.91,0,0,0-7.21,7.78,40.32,40.32,0,0,1,9-3.33A39.91,39.91,0,0,1,48.21,20.51ZM41.73,80.19a30.67,30.67,0,0,0,6.47-.7,40.52,40.52,0,0,1-8.76-4.06,40.71,40.71,0,0,1-9-3.32,29,29,0,0,0,7.21,7.77,25.31,25.31,0,0,0,4.08.31ZM35.47,62.55a2.11,2.11,0,1,0-2.15-2.07,2.1,2.1,0,0,0,2.15,2.07ZM37,26.22a37.88,37.88,0,0,0-7.48,3.25A37.8,37.8,0,0,0,26.22,37,45.26,45.26,0,0,1,37,26.23ZM29.47,70.54A37.63,37.63,0,0,0,37,73.79a46.22,46.22,0,0,1-5.81-4.92A44.9,44.9,0,0,1,26.22,63a38,38,0,0,0,3.25,7.49ZM28.8,28.8a31.28,31.28,0,0,1,6.86-8.29A20.09,20.09,0,0,0,20.55,35.62,31.3,31.3,0,0,1,28.8,28.8Zm6.86,50.7a31.32,31.32,0,0,1-6.86-8.3,31.42,31.42,0,0,1-8.26-6.83A20.09,20.09,0,0,0,35.65,79.48Zm-11.08-40a39.89,39.89,0,0,1,3.33-9,29,29,0,0,0-7.78,7.19,29,29,0,0,0,.4,10.58,40.81,40.81,0,0,1,4-8.75Zm3.33,30.1a39.82,39.82,0,0,1-3.33-9,40.18,40.18,0,0,1-4-8.73,29,29,0,0,0-.4,10.58,29.1,29.1,0,0,0,7.75,7.17ZM23.32,50A45.2,45.2,0,0,1,24,42.39,38.6,38.6,0,0,0,21,50a38.4,38.4,0,0,0,3,7.61A46.18,46.18,0,0,1,23.32,50ZM20,50a31.46,31.46,0,0,1-1-10.67,20,20,0,0,0,0,21.35A31.54,31.54,0,0,1,20,50Z"/></svg>